<?xml version="1.0" encoding="UTF-8"?><svg id="uuid-2300fd1e-b02f-4781-8da8-398e8c590bc2" xmlns="http://www.w3.org/2000/svg" viewBox="0 0 1900 650"><g id="uuid-8f365beb-d102-4a85-88c2-57c82ea5bca8"><path d="m1469.75,184.56c-6.09-8,2.95-17.03,10.94-10.94,6.09,8-2.95,17.03-10.94,10.94Z" fill="#fff"/><path d="m1883.3,400.1c-4.87-6.4,2.36-13.63,8.76-8.76,4.87,6.4-2.36,13.63-8.76,8.76Z" fill="#fff"/><path d="m1231.03,123.16c-4.38-5.75,2.12-12.25,7.87-7.87,4.38,5.75-2.12,12.25-7.87,7.87Z" fill="#fff"/><path d="m1826.73,586.75c-8.87-11.64,4.29-24.8,15.93-15.93,8.87,11.64-4.29,24.8-15.93,15.93Z" fill="#fff"/><path d="m1850.74,105.32c-2.11-2.77,1.02-5.89,3.78-3.78,2.11,2.77-1.02,5.89-3.78,3.78Z" fill="#fff"/><g id="uuid-aedef586-fb15-4f5e-a74b-b2ab7de9631b"><path d="m1434.46,554.28l-13.81-7.94-14.16,7.29,7.94-13.81-7.29-14.16,13.81,7.94,14.16-7.29-7.94,13.81,7.29,14.16h0Z" fill="#fff"/><circle cx="1297.97" cy="514.35" r="5.82" fill="#fff"/><circle cx="1767.47" cy="193.78" r="1.79" fill="#fff"/><circle cx="1747.54" cy="189.27" r="2.72" fill="#fff"/><circle cx="1769.25" cy="247.32" r="5" fill="#fff"/><circle cx="1501.07" cy="212.67" r="3.98" fill="#fff"/><circle cx="1270.44" cy="471.91" r="3.35" fill="#fff"/></g><g id="uuid-f128fcb7-1243-438e-8031-01aa5cc31d3b"><path d="m703.98,81.04c2.76,0,5-2.24,5-5s-2.24-5-5-5-5,2.24-5,5,2.24,5,5,5Z" fill="#fff"/><path d="m538.15,464.9c.92,0,1.67-.75,1.67-1.67s-.75-1.67-1.67-1.67-1.67.75-1.67,1.67.75,1.67,1.67,1.67Z" fill="#fff"/><path d="m545.56,45.58c1.12,0,2.03-.91,2.03-2.03s-.91-2.03-2.03-2.03-2.03.91-2.03,2.03.91,2.03,2.03,2.03Z" fill="#fff"/><path d="m590.92,496.52l2.1,21.09,2.12-21.09,18.88-2.6-18.72-2.06-2.29-20.45-2.19,20.45-17.49,2.06,17.57,2.6h.02Z" fill="#fff"/><path d="m362.24,574.43c1.12,0,2.03-.91,2.03-2.03s-.91-2.03-2.03-2.03-2.03.91-2.03,2.03.91,2.03,2.03,2.03Z" fill="#fff"/><circle cx="216.49" cy="9.42" r="4.26" fill="#fff"/><circle cx="141.7" cy="585.01" r="1.76" fill="#fff"/><circle cx="207.47" cy="351.64" r="3.53" fill="#fff"/><circle cx="106.43" cy="119.46" r="5.29" fill="#fff"/></g></g></svg>