<?xml version="1.0" encoding="UTF-8"?>
<svg id="Layer_1" data-name="Layer 1" xmlns="http://www.w3.org/2000/svg" xmlns:xlink="http://www.w3.org/1999/xlink" viewBox="0 0 1080 258">
  <defs>
    <style>
      .cls-1 {
        fill: #fff;
      }

      .cls-2 {
        fill: #f5f5f5;
      }

      .cls-3 {
        clip-path: url(#clippath-2);
      }

      .cls-4 {
        fill: #e0e0e0;
      }

      .cls-5 {
        clip-path: url(#clippath-1);
      }

      .cls-6 {
        clip-path: url(#clippath-4);
      }

      .cls-7 {
        clip-path: url(#clippath);
      }

      .cls-8 {
        fill: none;
      }

      .cls-9 {
        clip-path: url(#clippath-3);
      }
    </style>
    <clipPath id="clippath">
      <rect class="cls-8" width="1080" height="258"/>
    </clipPath>
    <clipPath id="clippath-1">
      <rect class="cls-8" x="49" y="45" width="167" height="167"/>
    </clipPath>
    <clipPath id="clippath-2">
      <rect class="cls-8" x="86" y="82" width="93" height="85"/>
    </clipPath>
    <clipPath id="clippath-3">
      <rect class="cls-8" x="123" y="72" width="20" height="20"/>
    </clipPath>
    <clipPath id="clippath-4">
      <rect class="cls-8" x="120" y="171" width="25" height="14"/>
    </clipPath>
  </defs>
  <g class="cls-7">
    <path class="cls-4" d="m128.54,258C57.46,258-.38,200.13-.38,129S57.46,0,128.54,0h823.03c71.09,0,128.92,57.87,128.92,129s-57.84,129-128.92,129H129"/>
  </g>
  <path class="cls-2" d="m952,255H128.57c-69.54,0-125.91-56.42-125.91-126S59.03,3,128.57,3h822.98c69.54,0,125.91,56.42,125.91,126s-56.37,126-125.91,126"/>
  <g class="cls-5">
    <path d="m215.98,128.59c0,2.73-.14,5.46-.4,8.18-.27,2.72-.67,5.42-1.2,8.1-.53,2.68-1.2,5.33-1.99,7.94s-1.71,5.19-2.76,7.71c-1.05,2.53-2.21,4.99-3.51,7.4-1.29,2.41-2.69,4.75-4.21,7.03-1.52,2.27-3.14,4.46-4.88,6.57-1.73,2.11-3.57,4.14-5.5,6.07s-3.95,3.77-6.07,5.5c-2.11,1.73-4.3,3.36-6.57,4.88-2.27,1.52-4.61,2.92-7.03,4.21-2.41,1.29-4.88,2.46-7.4,3.5-2.52,1.05-5.09,1.97-7.71,2.76s-5.26,1.46-7.94,1.99c-2.68.53-5.38.93-8.1,1.2-2.72.27-5.44.4-8.18.4s-5.46-.14-8.18-.4c-2.72-.27-5.42-.67-8.1-1.2-2.68-.53-5.33-1.2-7.94-1.99s-5.18-1.71-7.71-2.76c-2.52-1.04-4.99-2.21-7.4-3.5-2.41-1.29-4.75-2.69-7.02-4.21-2.27-1.52-4.46-3.14-6.58-4.88-2.11-1.73-4.13-3.57-6.06-5.5s-3.77-3.95-5.5-6.07c-1.73-2.11-3.36-4.3-4.88-6.57-1.52-2.28-2.92-4.61-4.21-7.03-1.29-2.41-2.45-4.88-3.5-7.4-1.05-2.52-1.96-5.09-2.76-7.71-.8-2.61-1.46-5.26-1.99-7.94-.54-2.68-.94-5.38-1.2-8.1s-.4-5.44-.4-8.18.14-5.46.4-8.18.67-5.42,1.2-8.1c.53-2.68,1.19-5.33,1.99-7.94.79-2.61,1.71-5.18,2.76-7.71,1.05-2.52,2.21-4.99,3.5-7.4,1.29-2.41,2.69-4.75,4.21-7.02,1.52-2.27,3.15-4.46,4.88-6.58,1.73-2.11,3.57-4.14,5.5-6.07,1.93-1.93,3.95-3.76,6.06-5.49,2.11-1.73,4.31-3.36,6.58-4.88,2.27-1.52,4.61-2.92,7.02-4.21,2.41-1.29,4.88-2.45,7.4-3.5,2.53-1.05,5.09-1.96,7.71-2.76,2.61-.8,5.27-1.46,7.94-1.99,2.68-.54,5.38-.94,8.1-1.2,2.72-.27,5.45-.4,8.18-.4s5.46.13,8.18.4c2.72.27,5.42.67,8.1,1.2,2.68.53,5.33,1.19,7.94,1.99,2.61.79,5.19,1.71,7.71,2.76,2.53,1.05,4.99,2.21,7.4,3.5,2.41,1.29,4.76,2.69,7.03,4.21,2.27,1.52,4.46,3.15,6.57,4.88,2.11,1.73,4.14,3.57,6.07,5.49,1.93,1.93,3.77,3.96,5.5,6.07,1.73,2.11,3.36,4.31,4.88,6.58,1.52,2.27,2.92,4.61,4.21,7.02,1.29,2.41,2.46,4.88,3.51,7.4,1.04,2.53,1.96,5.09,2.76,7.71s1.46,5.27,1.99,7.94c.53,2.68.93,5.38,1.2,8.1.27,2.72.4,5.45.4,8.18Z"/>
  </g>
  <g class="cls-3">
    <path class="cls-1" d="m139.89,82.96c14.06,3.22,23.68,16.13,23.73,30.56.1,33.82,15.54,30.78,15.54,46.26,0,0,0,6.21-6.21,6.21h-80.78c-6.21,0-6.21-6.21-6.21-6.21,0-15.53,15.53-12.43,15.53-46.6,0-19.55,18.06-34.89,38.41-30.23Z"/>
  </g>
  <g class="cls-9">
    <path class="cls-1" d="m141.88,81.99c0,.61-.06,1.22-.18,1.82s-.3,1.18-.53,1.75c-.23.56-.52,1.1-.86,1.61-.34.51-.72.98-1.16,1.41s-.91.82-1.41,1.16c-.51.34-1.05.63-1.61.86-.56.23-1.15.41-1.74.53-.6.12-1.21.18-1.82.18s-1.21-.06-1.82-.18c-.6-.12-1.18-.3-1.74-.53-.57-.23-1.1-.52-1.61-.86-.51-.34-.98-.73-1.41-1.16s-.82-.9-1.16-1.41c-.34-.51-.63-1.05-.86-1.61-.23-.57-.41-1.15-.53-1.75s-.18-1.21-.18-1.82.06-1.22.18-1.82c.12-.6.3-1.18.53-1.75s.52-1.1.86-1.61c.34-.51.72-.98,1.16-1.42.43-.43.91-.82,1.41-1.16.51-.34,1.05-.63,1.61-.86.56-.23,1.15-.41,1.74-.53.6-.12,1.21-.18,1.82-.18s1.22.06,1.82.18c.6.12,1.18.3,1.74.53.57.23,1.1.52,1.61.86.51.34.98.72,1.41,1.16.43.44.82.91,1.16,1.42.34.51.63,1.04.86,1.61s.41,1.15.53,1.75c.12.6.18,1.2.18,1.82Z"/>
  </g>
  <g class="cls-6">
    <path class="cls-1" d="m132.55,184.43c6.86,0,12.43-5.56,12.43-12.43h-24.85c0,6.86,5.57,12.43,12.43,12.43Z"/>
  </g>
  <path d="m293,156h-11v-61h14.03l24.88,39.3,1.09-.17v-39.13h11v61h-12.56l-26.39-41.97-1.05.17v41.81Z"/>
  <path d="m386.92,136h-29.75c.33,3.87,1.48,6.8,3.44,8.63s4.63,2.75,8.02,2.75c2.65,0,4.8-.49,6.46-1.48,1.65-1,2.98-2.51,4-3.9h.88l7.73,4.32c-1.52,3.25-3.8,5.89-6.85,7.9-3.04,2.02-7.11,3.02-12.21,3.02-4.79,0-8.93-.91-12.42-2.73-3.47-1.82-6.16-4.53-8.06-8.13-1.89-3.59-2.83-7.98-2.83-13.15s.99-9.7,2.98-13.31c2-3.61,4.69-6.3,8.06-8.08,3.39-1.78,7.2-2.67,11.44-2.67,6.54,0,11.55,1.74,15.04,5.21,3.48,3.47,5.23,8.56,5.23,15.27,0,2.45-.08,4.33-.25,5.67l-.9.68Zm-9.98-8c-.11-3.53-.93-6.09-2.46-7.71-1.53-1.61-3.76-2.42-6.69-2.42-5.89,0-9.35,3.38-10.38,10.13h19.52Z"/>
  <path d="m416.21,157h-11.95l-11.16-47h11.08l6.74,31h.87l8.72-31h9.98l9.01,31h.89l6.47-31h10.81l-11.04,47h-11.99l-8.93-32h-.89l-8.61,32Z"/>
  <path d="m499,156h-12v-61h14.03l24.88,39.3,1.09-.17v-39.13h12v61h-12.56l-26.39-41.97-1.05.17v41.81Z"/>
  <path d="m573.68,157.24c-4.54,0-8.53-.93-11.96-2.79-3.42-1.86-6.08-4.59-7.98-8.19-1.89-3.59-2.83-7.94-2.83-13.02s.94-9.45,2.83-13.06c1.9-3.61,4.56-6.34,7.98-8.21,3.43-1.86,7.42-2.79,11.96-2.79s8.51.93,11.94,2.79c3.43,1.86,6.09,4.6,8,8.21,1.9,3.61,2.85,7.97,2.85,13.06s-.95,9.43-2.85,13.02c-1.91,3.6-4.57,6.33-8,8.19-3.43,1.86-7.41,2.79-11.94,2.79Zm0-9.85c7.19,0,10.79-4.71,10.79-14.15,0-4.9-.93-8.49-2.77-10.77-1.85-2.28-4.52-3.42-8.02-3.42-7.2,0-10.79,4.73-10.79,14.19s3.59,14.15,10.79,14.15Z"/>
  <path d="m633.28,145l3.12,8.58c-1.31,1.04-2.94,1.85-4.9,2.43-1.97.58-4.19.87-6.67.87-5.18,0-9.11-1.36-11.81-4.07-2.68-2.73-4.02-6.68-4.02-11.87v-21.95h-7v-9h7v-9.02l12-1.9v10.92h13v9h-13v21.1c0,2.29.48,3.96,1.46,5.01.99,1.05,2.42,1.58,4.3,1.58,2.13,0,4-.56,5.59-1.68h.92Z"/>
  <path d="m649.01,104.51c-2.1,0-3.81-.63-5.13-1.9-1.31-1.28-1.96-2.92-1.96-4.94s.65-3.61,1.96-4.9c1.32-1.28,3.03-1.92,5.13-1.92,1.4,0,2.65.3,3.73.9,1.09.58,1.94,1.39,2.54,2.42.61,1.02.92,2.18.92,3.5s-.31,2.5-.92,3.54c-.6,1.03-1.45,1.83-2.54,2.42-1.08.58-2.33.88-3.73.88Zm-6.01,51.49v-46h12v46h-12Z"/>
  <path d="m669,156v-37h-6v-9h6.46c-.47-1.91-.7-3.69-.7-5.35,0-2.85.66-5.29,1.97-7.32,1.33-2.04,3.23-3.59,5.72-4.64,2.49-1.06,5.46-1.6,8.89-1.6,5.04,0,8.81.86,11.31,2.57l-2.69,8.33-.86.16c-1.72-1.19-3.92-1.78-6.6-1.78-2.07,0-3.63.5-4.67,1.5-1.03.99-1.54,2.34-1.54,4.05,0,.73.05,1.41.14,2.03.09.61.27,1.29.51,2.05h13.06v9h-13v37h-12Z"/>
  <path d="m707.36,104.51c-2.1,0-3.81-.63-5.13-1.9-1.31-1.28-1.96-2.92-1.96-4.94s.65-3.61,1.96-4.9c1.32-1.28,3.03-1.92,5.13-1.92,1.4,0,2.65.3,3.73.9,1.09.58,1.94,1.39,2.54,2.42.61,1.02.92,2.18.92,3.5s-.31,2.5-.92,3.54c-.6,1.03-1.45,1.83-2.54,2.42-1.08.58-2.33.88-3.73.88Zm-6.36,51.49v-46h12v46h-12Z"/>
  <path d="m746.83,157.73c-4.49,0-8.45-.93-11.9-2.79-3.43-1.86-6.12-4.59-8.06-8.21-1.93-3.61-2.9-7.94-2.9-13s.96-9.45,2.9-13.06c1.94-3.61,4.61-6.34,8.02-8.21,3.42-1.86,7.32-2.79,11.73-2.79,9.76,0,16.01,3.54,18.75,10.63l-7.96,5.71h-.9c-.95-2.18-2.18-3.8-3.71-4.85-1.53-1.07-3.59-1.6-6.19-1.6-3.36,0-5.98,1.16-7.85,3.48-1.88,2.32-2.81,5.89-2.81,10.71s.95,8.3,2.85,10.65c1.9,2.33,4.57,3.5,8.02,3.5,2.51,0,4.65-.68,6.4-2.04,1.75-1.36,3-3.31,3.75-5.85l.9-.08,8.27,4.54c-1.18,3.92-3.36,7.11-6.54,9.58-3.17,2.47-7.43,3.71-12.77,3.71Z"/>
  <path d="m785.37,157.44c-2.97,0-5.55-.54-7.73-1.63-2.18-1.09-3.86-2.7-5.04-4.81-1.18-2.11-1.77-4.65-1.77-7.63,0-2.73.59-5.03,1.77-6.9,1.18-1.86,3-3.39,5.46-4.58,2.46-1.19,5.67-2.11,9.65-2.75,2.78-.44,4.88-.93,6.31-1.46,1.44-.54,2.42-1.15,2.92-1.81.51-.67.77-1.52.77-2.56,0-1.48-.52-2.61-1.56-3.4-1.12-.86-3.03-1.25-5.76-1.18-2.1.05-4.18.53-6.09,1.41-2.6,1.19-4.83,2.81-6.69,4.85h-.85l-4.85-7.35c2.34-2.59,5.21-4.63,8.6-6.08,3.39-1.46,7.08-2.19,11.08-2.19,6.13,0,10.55,1.31,13.29,3.92,2.75,2.6,4.13,6.29,4.13,11.06v20.13c0,2.07.91,3.1,2.73,3.1.69,0,1.38-.13,2.06-.38l.58.17.83,8.1c-.64.42-1.54.76-2.69,1.02-1.14.26-2.4.4-3.77.4-2.78,0-4.95-.53-6.5-1.58-1.54-1.07-2.66-2.73-3.33-5l-.88-.08c-2.27,4.81-6.49,7.21-12.67,7.21Zm3.77-8.89c2.68,0,4.82-.9,6.44-2.71,1.61-1.8,2.42-4.32,2.42-7.54v-4.69l-.79-.17c-.71.56-1.64,1.02-2.77,1.4-1.13.38-2.75.75-4.88,1.13-2.52.42-4.33,1.14-5.44,2.17-1.11,1.02-1.67,2.46-1.67,4.33,0,1.99.59,3.5,1.77,4.54,1.18,1.03,2.82,1.54,4.92,1.54Z"/>
  <path d="m849.28,145l3.12,8.58c-1.31,1.04-2.94,1.85-4.9,2.43-1.97.58-4.19.87-6.67.87-5.18,0-9.11-1.36-11.81-4.07-2.68-2.73-4.02-6.68-4.02-11.87v-21.95h-7v-9h7v-9.02l12-1.9v10.92h13v9h-13v21.1c0,2.29.48,3.96,1.46,5.01.99,1.05,2.42,1.58,4.3,1.58,2.13,0,4-.56,5.59-1.68h.92Z"/>
  <path d="m864.81,104.51c-2.1,0-3.81-.63-5.13-1.9-1.31-1.28-1.96-2.92-1.96-4.94s.65-3.61,1.96-4.9c1.32-1.28,3.03-1.92,5.13-1.92,1.4,0,2.65.3,3.73.9,1.09.58,1.94,1.39,2.54,2.42.61,1.02.92,2.18.92,3.5s-.31,2.5-.92,3.54c-.6,1.03-1.45,1.83-2.54,2.42-1.08.58-2.33.88-3.73.88Zm-5.81,51.49v-46h12v46h-12Z"/>
  <path d="m904.2,157.24c-4.54,0-8.53-.93-11.96-2.79-3.42-1.86-6.08-4.59-7.98-8.19-1.89-3.59-2.83-7.94-2.83-13.02s.94-9.45,2.83-13.06c1.9-3.61,4.56-6.34,7.98-8.21,3.43-1.86,7.42-2.79,11.96-2.79s8.51.93,11.94,2.79c3.43,1.86,6.09,4.6,8,8.21,1.9,3.61,2.85,7.97,2.85,13.06s-.95,9.43-2.85,13.02c-1.91,3.6-4.57,6.33-8,8.19-3.43,1.86-7.41,2.79-11.94,2.79Zm0-9.85c7.19,0,10.79-4.71,10.79-14.15,0-4.9-.93-8.49-2.77-10.77-1.85-2.28-4.52-3.42-8.02-3.42-7.2,0-10.79,4.73-10.79,14.19s3.59,14.15,10.79,14.15Z"/>
  <path d="m938,156v-46h11v6.77l.88.21c2.83-5.22,7.44-7.84,13.82-7.84,5.27,0,9.14,1.45,11.6,4.35,2.46,2.89,3.7,7.09,3.7,12.62v29.9h-11v-28.67c0-3.08-.61-5.3-1.82-6.65-1.2-1.36-3.14-2.04-5.81-2.04-3.26,0-5.8,1.08-7.63,3.23-1.83,2.16-2.74,5.54-2.74,10.15v23.98h-12Z"/>
</svg>